<mxfile host="drawio-plugin" modified="2024-02-18T01:55:45.083Z" agent="5.0 (Macintosh; Intel Mac OS X 10_15_7) AppleWebKit/537.36 (KHTML, like Gecko) Chrome/119.0.0.0 Safari/537.36" etag="YlT9UJSuFHC95Ye-WXT9" version="20.5.3" type="embed"><diagram id="mZmNjcs3R2Ll3cJTrSu-" name="Page-1"><mxGraphModel dx="842" dy="1133" grid="1" gridSize="10" guides="1" tooltips="1" connect="1" arrows="1" fold="1" page="1" pageScale="1" pageWidth="850" pageHeight="1100" math="0" shadow="0"><root><mxCell id="0"/><mxCell id="1" parent="0"/><mxCell id="49" value="" style="edgeStyle=orthogonalEdgeStyle;rounded=0;orthogonalLoop=1;jettySize=auto;html=1;" parent="1" source="50" target="52" edge="1"><mxGeometry relative="1" as="geometry"><mxPoint x="425.5" y="120" as="targetPoint"/></mxGeometry></mxCell><mxCell id="50" value="Inicio" style="ellipse;whiteSpace=wrap;html=1;" parent="1" vertex="1"><mxGeometry x="387.5" y="40" width="75" height="40" as="geometry"/></mxCell><mxCell id="51" value="" style="edgeStyle=orthogonalEdgeStyle;rounded=0;orthogonalLoop=1;jettySize=auto;html=1;entryX=0.5;entryY=0;entryDx=0;entryDy=0;" parent="1" source="52" target="54" edge="1"><mxGeometry relative="1" as="geometry"><mxPoint x="425.5" y="200" as="targetPoint"/></mxGeometry></mxCell><mxCell id="52" value="fillVector()" style="shape=process;whiteSpace=wrap;html=1;backgroundOutline=1;" parent="1" vertex="1"><mxGeometry x="365.5" y="120" width="120" height="40" as="geometry"/></mxCell><mxCell id="53" style="edgeStyle=orthogonalEdgeStyle;rounded=0;orthogonalLoop=1;jettySize=auto;html=1;entryX=0.5;entryY=0;entryDx=0;entryDy=0;" parent="1" source="54" target="64" edge="1"><mxGeometry relative="1" as="geometry"/></mxCell><mxCell id="54" value="getVectorSize()" style="shape=process;whiteSpace=wrap;html=1;backgroundOutline=1;" parent="1" vertex="1"><mxGeometry x="347" y="190" width="156" height="40" as="geometry"/></mxCell><mxCell id="55" style="edgeStyle=orthogonalEdgeStyle;rounded=0;orthogonalLoop=1;jettySize=auto;html=1;entryX=0.5;entryY=0;entryDx=0;entryDy=0;" parent="1" source="56" target="57" edge="1"><mxGeometry relative="1" as="geometry"/></mxCell><mxCell id="56" value="agesQuantity1 = getVectorSize" style="rounded=0;whiteSpace=wrap;html=1;" parent="1" vertex="1"><mxGeometry x="322" y="330" width="206" height="45" as="geometry"/></mxCell><mxCell id="57" value="int* ageArray1 = fillVector(agesQuantity1)" style="rounded=0;whiteSpace=wrap;html=1;" parent="1" vertex="1"><mxGeometry x="322" y="400" width="206" height="45" as="geometry"/></mxCell><mxCell id="59" style="edgeStyle=orthogonalEdgeStyle;rounded=0;orthogonalLoop=1;jettySize=auto;html=1;entryX=0.5;entryY=0;entryDx=0;entryDy=0;" parent="1" source="60" target="62" edge="1"><mxGeometry relative="1" as="geometry"/></mxCell><mxCell id="60" value="agesQuantity2 = getVectorSize" style="rounded=0;whiteSpace=wrap;html=1;" parent="1" vertex="1"><mxGeometry x="322" y="546" width="206" height="45" as="geometry"/></mxCell><mxCell id="61" style="edgeStyle=orthogonalEdgeStyle;rounded=0;orthogonalLoop=1;jettySize=auto;html=1;entryX=0.5;entryY=0;entryDx=0;entryDy=0;" parent="1" source="62" target="101" edge="1"><mxGeometry relative="1" as="geometry"><mxPoint x="425" y="686" as="targetPoint"/></mxGeometry></mxCell><mxCell id="62" value="int* ageArray2 = fillVector(agesQuantity1)" style="rounded=0;whiteSpace=wrap;html=1;" parent="1" vertex="1"><mxGeometry x="322" y="616" width="206" height="45" as="geometry"/></mxCell><mxCell id="63" style="edgeStyle=orthogonalEdgeStyle;rounded=0;orthogonalLoop=1;jettySize=auto;html=1;" parent="1" source="64" target="56" edge="1"><mxGeometry relative="1" as="geometry"/></mxCell><mxCell id="64" value="print msg" style="shape=parallelogram;perimeter=parallelogramPerimeter;whiteSpace=wrap;html=1;fixedSize=1;" parent="1" vertex="1"><mxGeometry x="350" y="260" width="150" height="40" as="geometry"/></mxCell><mxCell id="148" value="" style="edgeStyle=orthogonalEdgeStyle;rounded=0;orthogonalLoop=1;jettySize=auto;html=1;" edge="1" parent="1" source="94" target="147"><mxGeometry relative="1" as="geometry"/></mxCell><mxCell id="94" value="int i = 0" style="whiteSpace=wrap;html=1;rounded=0;" parent="1" vertex="1"><mxGeometry x="365" y="840" width="120" height="40" as="geometry"/></mxCell><mxCell id="98" style="edgeStyle=orthogonalEdgeStyle;rounded=0;orthogonalLoop=1;jettySize=auto;html=1;entryX=0.5;entryY=0;entryDx=0;entryDy=0;" parent="1" source="97" target="94" edge="1"><mxGeometry relative="1" as="geometry"/></mxCell><mxCell id="97" value="int fusionArray [ fusionQty ]" style="rounded=0;whiteSpace=wrap;html=1;" parent="1" vertex="1"><mxGeometry x="331" y="756" width="188" height="45" as="geometry"/></mxCell><mxCell id="102" style="edgeStyle=orthogonalEdgeStyle;rounded=0;orthogonalLoop=1;jettySize=auto;html=1;entryX=0.5;entryY=0;entryDx=0;entryDy=0;" parent="1" source="101" target="97" edge="1"><mxGeometry relative="1" as="geometry"/></mxCell><mxCell id="101" value="fusionQty = agesQuantity1 + agesQuantity2" style="rounded=0;whiteSpace=wrap;html=1;" parent="1" vertex="1"><mxGeometry x="298" y="686" width="254" height="45" as="geometry"/></mxCell><mxCell id="103" style="edgeStyle=orthogonalEdgeStyle;rounded=0;orthogonalLoop=1;jettySize=auto;html=1;entryX=0.5;entryY=0;entryDx=0;entryDy=0;exitX=0.5;exitY=1;exitDx=0;exitDy=0;" parent="1" source="57" target="105" edge="1"><mxGeometry relative="1" as="geometry"><mxPoint x="425" y="445" as="sourcePoint"/></mxGeometry></mxCell><mxCell id="104" style="edgeStyle=orthogonalEdgeStyle;rounded=0;orthogonalLoop=1;jettySize=auto;html=1;entryX=0.5;entryY=0;entryDx=0;entryDy=0;" parent="1" source="105" target="60" edge="1"><mxGeometry relative="1" as="geometry"><mxPoint x="425" y="521" as="targetPoint"/></mxGeometry></mxCell><mxCell id="105" value="print msg" style="shape=parallelogram;perimeter=parallelogramPerimeter;whiteSpace=wrap;html=1;fixedSize=1;" parent="1" vertex="1"><mxGeometry x="350" y="475" width="150" height="40" as="geometry"/></mxCell><mxCell id="150" style="edgeStyle=orthogonalEdgeStyle;rounded=0;orthogonalLoop=1;jettySize=auto;html=1;entryX=0.5;entryY=0;entryDx=0;entryDy=0;" edge="1" parent="1" source="147" target="149"><mxGeometry relative="1" as="geometry"/></mxCell><mxCell id="147" value="i &amp;lt; arrayQty1" style="rhombus;whiteSpace=wrap;html=1;rounded=0;" vertex="1" parent="1"><mxGeometry x="369" y="920" width="112" height="80" as="geometry"/></mxCell><mxCell id="149" value="int a = 0" style="whiteSpace=wrap;html=1;rounded=0;" vertex="1" parent="1"><mxGeometry x="365" y="1040" width="120" height="40" as="geometry"/></mxCell><mxCell id="151" value="" style="edgeStyle=orthogonalEdgeStyle;rounded=0;orthogonalLoop=1;jettySize=auto;html=1;exitX=0.5;exitY=1;exitDx=0;exitDy=0;" edge="1" parent="1" target="153" source="149"><mxGeometry relative="1" as="geometry"><mxPoint x="425" y="1080" as="sourcePoint"/></mxGeometry></mxCell><mxCell id="152" style="edgeStyle=orthogonalEdgeStyle;rounded=0;orthogonalLoop=1;jettySize=auto;html=1;entryX=0.5;entryY=0;entryDx=0;entryDy=0;" edge="1" parent="1" source="153" target="154"><mxGeometry relative="1" as="geometry"><mxPoint x="425" y="1240" as="targetPoint"/></mxGeometry></mxCell><mxCell id="153" value="a &amp;lt; funsionQty" style="rhombus;whiteSpace=wrap;html=1;rounded=0;" vertex="1" parent="1"><mxGeometry x="369" y="1120" width="112" height="80" as="geometry"/></mxCell><mxCell id="159" style="edgeStyle=orthogonalEdgeStyle;rounded=0;orthogonalLoop=1;jettySize=auto;html=1;entryX=0.5;entryY=0;entryDx=0;entryDy=0;exitX=1;exitY=0.5;exitDx=0;exitDy=0;" edge="1" parent="1" source="154" target="157"><mxGeometry relative="1" as="geometry"><mxPoint x="525" y="1350" as="targetPoint"/></mxGeometry></mxCell><mxCell id="154" value="fusionArray [a] != 0" style="rhombus;whiteSpace=wrap;html=1;rounded=0;" vertex="1" parent="1"><mxGeometry x="360" y="1240" width="131" height="100" as="geometry"/></mxCell><mxCell id="157" value="fusionArray [a] = ageArray1 [ i ]" style="rounded=0;whiteSpace=wrap;html=1;" vertex="1" parent="1"><mxGeometry x="491" y="1360" width="188" height="45" as="geometry"/></mxCell><mxCell id="160" value="" style="endArrow=none;html=1;rounded=0;entryX=0;entryY=0.5;entryDx=0;entryDy=0;exitX=0.5;exitY=1;exitDx=0;exitDy=0;" edge="1" parent="1" source="157" target="154"><mxGeometry width="50" height="50" relative="1" as="geometry"><mxPoint x="260" y="1200" as="sourcePoint"/><mxPoint x="350" y="1290" as="targetPoint"/><Array as="points"><mxPoint x="585" y="1440"/><mxPoint x="280" y="1440"/><mxPoint x="280" y="1290"/></Array></mxGeometry></mxCell><mxCell id="161" value="No" style="text;html=1;align=center;verticalAlign=middle;resizable=0;points=[];autosize=1;strokeColor=none;fillColor=none;" vertex="1" parent="1"><mxGeometry x="300" y="1265" width="40" height="30" as="geometry"/></mxCell><mxCell id="162" value="Si" style="text;html=1;align=center;verticalAlign=middle;resizable=0;points=[];autosize=1;strokeColor=none;fillColor=none;" vertex="1" parent="1"><mxGeometry x="515" y="1265" width="30" height="30" as="geometry"/></mxCell><mxCell id="163" value="a ++" style="whiteSpace=wrap;html=1;rounded=0;" vertex="1" parent="1"><mxGeometry x="365" y="1480" width="120" height="40" as="geometry"/></mxCell><mxCell id="166" value="" style="edgeStyle=orthogonalEdgeStyle;rounded=0;orthogonalLoop=1;jettySize=auto;html=1;entryX=0.5;entryY=0;entryDx=0;entryDy=0;" edge="1" parent="1" target="163"><mxGeometry relative="1" as="geometry"><mxPoint x="425" y="1440" as="sourcePoint"/><mxPoint x="435" y="1130" as="targetPoint"/></mxGeometry></mxCell><mxCell id="167" value="" style="endArrow=classic;html=1;rounded=0;exitX=0.5;exitY=1;exitDx=0;exitDy=0;" edge="1" parent="1" source="163"><mxGeometry width="50" height="50" relative="1" as="geometry"><mxPoint x="390" y="1200" as="sourcePoint"/><mxPoint x="425" y="1100" as="targetPoint"/><Array as="points"><mxPoint x="425" y="1560"/><mxPoint x="720" y="1560"/><mxPoint x="720" y="1100"/></Array></mxGeometry></mxCell><mxCell id="168" value="Si" style="text;html=1;align=center;verticalAlign=middle;resizable=0;points=[];autosize=1;strokeColor=none;fillColor=none;" vertex="1" parent="1"><mxGeometry x="425" y="1205" width="30" height="30" as="geometry"/></mxCell><mxCell id="169" value="" style="endArrow=classic;html=1;rounded=0;exitX=0;exitY=0.5;exitDx=0;exitDy=0;entryX=0.45;entryY=0.025;entryDx=0;entryDy=0;entryPerimeter=0;" edge="1" parent="1" source="153"><mxGeometry width="50" height="50" relative="1" as="geometry"><mxPoint x="380" y="1260" as="sourcePoint"/><mxPoint x="425" y="1641" as="targetPoint"/><Array as="points"><mxPoint x="240" y="1160"/><mxPoint x="240" y="1600"/><mxPoint x="425" y="1600"/></Array></mxGeometry></mxCell><mxCell id="170" value="No" style="text;html=1;align=center;verticalAlign=middle;resizable=0;points=[];autosize=1;strokeColor=none;fillColor=none;" vertex="1" parent="1"><mxGeometry x="298" y="1130" width="40" height="30" as="geometry"/></mxCell><mxCell id="309" style="edgeStyle=orthogonalEdgeStyle;rounded=0;orthogonalLoop=1;jettySize=auto;html=1;entryX=0.5;entryY=0;entryDx=0;entryDy=0;" edge="1" parent="1" source="216" target="285"><mxGeometry relative="1" as="geometry"/></mxCell><mxCell id="216" value="int j = 0" style="whiteSpace=wrap;html=1;rounded=0;" vertex="1" parent="1"><mxGeometry x="368" y="1768" width="120" height="40" as="geometry"/></mxCell><mxCell id="235" value="i ++" style="whiteSpace=wrap;html=1;rounded=0;" vertex="1" parent="1"><mxGeometry x="365" y="1640" width="120" height="40" as="geometry"/></mxCell><mxCell id="236" value="" style="endArrow=classic;html=1;rounded=0;exitX=0.5;exitY=1;exitDx=0;exitDy=0;" edge="1" parent="1"><mxGeometry width="50" height="50" relative="1" as="geometry"><mxPoint x="425" y="1680" as="sourcePoint"/><mxPoint x="425" y="900" as="targetPoint"/><Array as="points"><mxPoint x="425" y="1720"/><mxPoint x="760" y="1720"/><mxPoint x="760" y="900"/></Array></mxGeometry></mxCell><mxCell id="237" value="" style="endArrow=classic;html=1;rounded=0;exitX=0;exitY=0.5;exitDx=0;exitDy=0;entryX=0.5;entryY=0;entryDx=0;entryDy=0;" edge="1" parent="1" source="147" target="216"><mxGeometry width="50" height="50" relative="1" as="geometry"><mxPoint x="470" y="1380" as="sourcePoint"/><mxPoint x="520" y="1330" as="targetPoint"/><Array as="points"><mxPoint x="200" y="960"/><mxPoint x="200" y="1740"/><mxPoint x="428" y="1740"/></Array></mxGeometry></mxCell><mxCell id="284" style="edgeStyle=orthogonalEdgeStyle;rounded=0;orthogonalLoop=1;jettySize=auto;html=1;entryX=0.5;entryY=0;entryDx=0;entryDy=0;" edge="1" parent="1" source="285" target="286"><mxGeometry relative="1" as="geometry"/></mxCell><mxCell id="285" value="i &amp;lt; arrayQty2" style="rhombus;whiteSpace=wrap;html=1;rounded=0;" vertex="1" parent="1"><mxGeometry x="372" y="1850" width="112" height="80" as="geometry"/></mxCell><mxCell id="286" value="int a = 0" style="whiteSpace=wrap;html=1;rounded=0;" vertex="1" parent="1"><mxGeometry x="368" y="1970" width="120" height="40" as="geometry"/></mxCell><mxCell id="287" value="" style="edgeStyle=orthogonalEdgeStyle;rounded=0;orthogonalLoop=1;jettySize=auto;html=1;exitX=0.5;exitY=1;exitDx=0;exitDy=0;" edge="1" parent="1" source="286" target="289"><mxGeometry relative="1" as="geometry"><mxPoint x="428" y="2010" as="sourcePoint"/></mxGeometry></mxCell><mxCell id="288" style="edgeStyle=orthogonalEdgeStyle;rounded=0;orthogonalLoop=1;jettySize=auto;html=1;entryX=0.5;entryY=0;entryDx=0;entryDy=0;" edge="1" parent="1" source="289" target="291"><mxGeometry relative="1" as="geometry"><mxPoint x="428" y="2170" as="targetPoint"/></mxGeometry></mxCell><mxCell id="289" value="a &amp;lt; funsionQty" style="rhombus;whiteSpace=wrap;html=1;rounded=0;" vertex="1" parent="1"><mxGeometry x="372" y="2050" width="112" height="80" as="geometry"/></mxCell><mxCell id="290" style="edgeStyle=orthogonalEdgeStyle;rounded=0;orthogonalLoop=1;jettySize=auto;html=1;entryX=0.5;entryY=0;entryDx=0;entryDy=0;exitX=1;exitY=0.5;exitDx=0;exitDy=0;" edge="1" parent="1" source="291" target="292"><mxGeometry relative="1" as="geometry"><mxPoint x="528" y="2280" as="targetPoint"/></mxGeometry></mxCell><mxCell id="291" value="fusionArray [a] != 0" style="rhombus;whiteSpace=wrap;html=1;rounded=0;" vertex="1" parent="1"><mxGeometry x="363" y="2170" width="131" height="100" as="geometry"/></mxCell><mxCell id="292" value="fusionArray [a] = ageArray2 [ j ]" style="rounded=0;whiteSpace=wrap;html=1;" vertex="1" parent="1"><mxGeometry x="494" y="2290" width="188" height="45" as="geometry"/></mxCell><mxCell id="293" value="" style="endArrow=none;html=1;rounded=0;entryX=0;entryY=0.5;entryDx=0;entryDy=0;exitX=0.5;exitY=1;exitDx=0;exitDy=0;" edge="1" parent="1" source="292" target="291"><mxGeometry width="50" height="50" relative="1" as="geometry"><mxPoint x="263" y="2130" as="sourcePoint"/><mxPoint x="353" y="2220" as="targetPoint"/><Array as="points"><mxPoint x="588" y="2370"/><mxPoint x="283" y="2370"/><mxPoint x="283" y="2220"/></Array></mxGeometry></mxCell><mxCell id="294" value="No" style="text;html=1;align=center;verticalAlign=middle;resizable=0;points=[];autosize=1;strokeColor=none;fillColor=none;" vertex="1" parent="1"><mxGeometry x="303" y="2195" width="40" height="30" as="geometry"/></mxCell><mxCell id="295" value="Si" style="text;html=1;align=center;verticalAlign=middle;resizable=0;points=[];autosize=1;strokeColor=none;fillColor=none;" vertex="1" parent="1"><mxGeometry x="518" y="2195" width="30" height="30" as="geometry"/></mxCell><mxCell id="296" value="a ++" style="whiteSpace=wrap;html=1;rounded=0;" vertex="1" parent="1"><mxGeometry x="368" y="2410" width="120" height="40" as="geometry"/></mxCell><mxCell id="297" value="" style="edgeStyle=orthogonalEdgeStyle;rounded=0;orthogonalLoop=1;jettySize=auto;html=1;entryX=0.5;entryY=0;entryDx=0;entryDy=0;" edge="1" parent="1" target="296"><mxGeometry relative="1" as="geometry"><mxPoint x="428" y="2370" as="sourcePoint"/><mxPoint x="438" y="2060" as="targetPoint"/></mxGeometry></mxCell><mxCell id="298" value="" style="endArrow=classic;html=1;rounded=0;exitX=0.5;exitY=1;exitDx=0;exitDy=0;" edge="1" parent="1" source="296"><mxGeometry width="50" height="50" relative="1" as="geometry"><mxPoint x="393" y="2130" as="sourcePoint"/><mxPoint x="428" y="2030" as="targetPoint"/><Array as="points"><mxPoint x="428" y="2490"/><mxPoint x="723" y="2490"/><mxPoint x="723" y="2030"/></Array></mxGeometry></mxCell><mxCell id="299" value="Si" style="text;html=1;align=center;verticalAlign=middle;resizable=0;points=[];autosize=1;strokeColor=none;fillColor=none;" vertex="1" parent="1"><mxGeometry x="428" y="2135" width="30" height="30" as="geometry"/></mxCell><mxCell id="300" value="" style="endArrow=classic;html=1;rounded=0;exitX=0;exitY=0.5;exitDx=0;exitDy=0;entryX=0.45;entryY=0.025;entryDx=0;entryDy=0;entryPerimeter=0;" edge="1" parent="1" source="289"><mxGeometry width="50" height="50" relative="1" as="geometry"><mxPoint x="383" y="2190" as="sourcePoint"/><mxPoint x="428" y="2571" as="targetPoint"/><Array as="points"><mxPoint x="243" y="2090"/><mxPoint x="243" y="2530"/><mxPoint x="428" y="2530"/></Array></mxGeometry></mxCell><mxCell id="301" value="No" style="text;html=1;align=center;verticalAlign=middle;resizable=0;points=[];autosize=1;strokeColor=none;fillColor=none;" vertex="1" parent="1"><mxGeometry x="291" y="2060" width="40" height="30" as="geometry"/></mxCell><mxCell id="304" value="j ++" style="whiteSpace=wrap;html=1;rounded=0;" vertex="1" parent="1"><mxGeometry x="368" y="2570" width="120" height="40" as="geometry"/></mxCell><mxCell id="305" value="" style="endArrow=classic;html=1;rounded=0;exitX=0.5;exitY=1;exitDx=0;exitDy=0;" edge="1" parent="1"><mxGeometry width="50" height="50" relative="1" as="geometry"><mxPoint x="428" y="2610" as="sourcePoint"/><mxPoint x="430" y="1830" as="targetPoint"/><Array as="points"><mxPoint x="428" y="2650"/><mxPoint x="763" y="2650"/><mxPoint x="763" y="1830"/></Array></mxGeometry></mxCell><mxCell id="306" value="" style="endArrow=classic;html=1;rounded=0;exitX=0;exitY=0.5;exitDx=0;exitDy=0;entryX=0.5;entryY=0;entryDx=0;entryDy=0;" edge="1" parent="1" source="285" target="315"><mxGeometry width="50" height="50" relative="1" as="geometry"><mxPoint x="473" y="2310" as="sourcePoint"/><mxPoint x="431" y="2698" as="targetPoint"/><Array as="points"><mxPoint x="203" y="1890"/><mxPoint x="203" y="2670"/><mxPoint x="426" y="2670"/></Array></mxGeometry></mxCell><mxCell id="310" value="No" style="text;html=1;align=center;verticalAlign=middle;resizable=0;points=[];autosize=1;strokeColor=none;fillColor=none;" vertex="1" parent="1"><mxGeometry x="260" y="1865" width="40" height="30" as="geometry"/></mxCell><mxCell id="311" value="No" style="text;html=1;align=center;verticalAlign=middle;resizable=0;points=[];autosize=1;strokeColor=none;fillColor=none;" vertex="1" parent="1"><mxGeometry x="280" y="935" width="40" height="30" as="geometry"/></mxCell><mxCell id="312" value="Si" style="text;html=1;align=center;verticalAlign=middle;resizable=0;points=[];autosize=1;strokeColor=none;fillColor=none;" vertex="1" parent="1"><mxGeometry x="425" y="1005" width="30" height="30" as="geometry"/></mxCell><mxCell id="313" value="Si" style="text;html=1;align=center;verticalAlign=middle;resizable=0;points=[];autosize=1;strokeColor=none;fillColor=none;" vertex="1" parent="1"><mxGeometry x="425" y="1935" width="30" height="30" as="geometry"/></mxCell><mxCell id="317" value="" style="edgeStyle=orthogonalEdgeStyle;rounded=0;orthogonalLoop=1;jettySize=auto;html=1;" edge="1" parent="1" source="315" target="316"><mxGeometry relative="1" as="geometry"/></mxCell><mxCell id="315" value="getVectorAges(fusionArray[], fusionQty, Msg)" style="shape=process;whiteSpace=wrap;html=1;backgroundOutline=1;" vertex="1" parent="1"><mxGeometry x="295" y="2700" width="261" height="40" as="geometry"/></mxCell><mxCell id="316" value="Inicio" style="ellipse;whiteSpace=wrap;html=1;" vertex="1" parent="1"><mxGeometry x="388" y="2780" width="75" height="40" as="geometry"/></mxCell></root></mxGraphModel></diagram></mxfile>